<?xml version="1.0" standalone="no"?>
<!DOCTYPE svg PUBLIC "-//W3C//DTD SVG 20010904//EN"
 "http://www.w3.org/TR/2001/REC-SVG-20010904/DTD/svg10.dtd">
<svg version="1.0" xmlns="http://www.w3.org/2000/svg"
 width="1862.000000pt" height="616.000000pt" viewBox="0 0 1862.000000 616.000000"
 preserveAspectRatio="xMidYMid meet">

<g transform="translate(0.000000,616.000000) scale(0.100000,-0.100000)"
fill="#000000" stroke="none">
<path d="M1055 5002 c-11 -4 -31 -14 -45 -24 -14 -9 -44 -19 -68 -23 -23 -4
-55 -17 -70 -29 -15 -13 -40 -26 -56 -30 -17 -4 -44 -19 -62 -34 -17 -15 -56
-46 -87 -70 -30 -24 -75 -69 -99 -99 -24 -31 -55 -70 -69 -87 -15 -17 -30 -42
-34 -56 -4 -14 -16 -34 -26 -45 -10 -11 -25 -49 -33 -84 -8 -34 -23 -72 -33
-83 -17 -19 -18 -76 -18 -1258 l0 -1238 22 -30 c12 -16 24 -50 28 -76 4 -26
18 -59 30 -74 12 -15 26 -38 30 -52 4 -14 17 -36 29 -50 12 -14 35 -43 51 -65
42 -58 146 -165 161 -165 6 0 31 -16 54 -35 23 -19 50 -35 59 -35 10 0 28 -11
40 -24 15 -16 38 -26 71 -30 26 -4 60 -16 75 -28 19 -15 50 -23 113 -29 49 -5
3672 -8 8262 -7 7669 3 8177 4 8205 20 50 28 78 40 115 45 19 3 46 16 60 28
14 12 38 26 55 29 36 9 83 47 189 152 89 90 146 156 146 171 0 5 13 30 29 55
16 25 34 69 40 99 7 29 19 61 27 71 9 10 20 48 25 90 10 93 11 2247 0 2349 -5
50 -15 86 -29 105 -11 16 -23 49 -26 73 -4 25 -18 57 -31 73 -14 16 -25 36
-25 43 0 7 -16 32 -35 55 -19 23 -35 48 -35 54 0 15 -107 119 -165 161 -22 16
-51 39 -65 51 -14 12 -36 25 -50 29 -14 4 -37 18 -52 30 -15 12 -48 26 -74 30
-26 4 -60 16 -76 28 l-30 22 -8251 2 c-4539 0 -8261 -2 -8272 -5z m5073 -870
c13 -8 32 -22 43 -33 10 -10 31 -19 47 -19 45 0 71 -11 77 -31 4 -12 19 -22
36 -26 38 -7 229 -193 229 -222 0 -11 8 -22 18 -26 21 -6 42 -45 42 -75 0 -11
13 -33 29 -49 21 -21 31 -44 36 -80 4 -28 11 -51 16 -51 21 0 34 -56 45 -200
16 -196 17 -323 3 -509 -13 -189 -16 -208 -38 -229 -11 -9 -24 -43 -30 -74 -9
-41 -19 -61 -37 -72 -17 -12 -24 -26 -24 -47 0 -21 -11 -40 -35 -65 -19 -19
-35 -41 -35 -49 0 -7 -11 -22 -25 -33 -14 -11 -25 -23 -25 -27 0 -13 -74 -76
-96 -81 -13 -3 -26 -15 -29 -25 -4 -11 -22 -26 -41 -34 -19 -8 -34 -19 -34
-24 0 -15 -54 -41 -86 -41 -14 0 -39 -11 -55 -25 -16 -13 -44 -27 -62 -30 -18
-3 -158 -5 -313 -3 l-280 3 -33 28 c-18 15 -43 27 -56 27 -29 0 -75 20 -75 32
0 4 -25 19 -55 33 -32 14 -55 30 -55 39 0 9 -10 18 -23 21 -13 4 -31 19 -40
35 -10 16 -26 32 -37 35 -10 3 -22 15 -25 26 -4 11 -18 27 -31 36 -15 9 -29
32 -35 59 -7 26 -20 49 -34 58 -13 9 -26 30 -30 48 -4 18 -16 43 -27 55 -22
23 -37 83 -38 147 0 25 -8 48 -24 67 -22 26 -24 39 -31 196 -4 92 -4 239 1
327 9 146 11 160 32 176 13 11 22 29 22 47 0 72 14 134 34 156 12 13 28 43 35
66 8 27 20 45 31 48 12 3 21 18 25 43 4 23 18 49 38 68 18 17 40 40 50 51 24
24 34 34 58 58 11 10 34 33 51 50 17 18 46 36 64 39 18 3 40 16 48 29 10 16
28 24 63 29 32 4 53 13 64 27 25 33 72 38 364 36 203 -2 276 -5 293 -15z
m6152 9 c25 -5 52 -18 61 -30 10 -12 32 -24 51 -27 69 -11 78 -15 78 -29 0
-17 30 -35 59 -35 10 0 34 -16 52 -35 19 -19 39 -35 46 -35 6 0 14 -9 18 -20
3 -11 22 -34 41 -52 19 -19 37 -46 40 -65 3 -18 12 -33 20 -33 17 0 44 -51 44
-84 0 -33 -20 -76 -35 -76 -11 0 -45 -29 -115 -95 -14 -14 -41 -30 -60 -36
-19 -7 -47 -21 -62 -32 -34 -25 -52 -18 -78 33 -11 22 -24 40 -28 40 -5 0 -18
20 -30 45 -12 25 -29 45 -37 45 -9 0 -19 10 -24 23 -6 15 -23 27 -50 35 -22 7
-46 21 -53 31 -9 13 -41 23 -113 34 -120 21 -98 20 -220 1 -77 -12 -106 -21
-125 -39 -14 -13 -37 -27 -52 -30 -15 -4 -30 -16 -33 -27 -4 -10 -18 -23 -31
-29 -14 -5 -30 -22 -35 -38 -6 -16 -19 -31 -29 -34 -13 -3 -20 -18 -25 -50 -5
-32 -16 -53 -36 -71 -27 -24 -29 -32 -29 -94 -1 -83 -14 -143 -34 -154 -13 -7
-16 -31 -16 -129 0 -110 2 -122 21 -138 17 -14 22 -32 28 -120 6 -91 9 -105
29 -122 13 -10 28 -33 33 -51 5 -18 20 -46 34 -62 14 -16 25 -38 25 -48 0 -11
11 -23 25 -28 14 -5 30 -21 37 -35 6 -14 19 -25 28 -25 9 0 34 -13 56 -30 21
-16 50 -30 64 -30 14 0 59 -7 100 -14 63 -11 86 -11 140 0 36 7 81 14 101 14
24 0 43 7 58 24 12 12 39 28 60 35 25 7 41 19 44 32 3 11 15 23 26 26 11 3 24
18 30 35 6 16 24 45 41 64 16 19 30 40 30 46 0 6 8 17 17 23 19 14 51 4 66
-21 4 -8 16 -14 26 -14 27 0 70 -25 87 -49 9 -12 21 -21 29 -21 8 0 24 -13 36
-29 12 -16 30 -32 40 -34 49 -13 48 -113 -1 -158 -16 -15 -30 -37 -30 -49 0
-34 -163 -185 -213 -196 -16 -3 -32 -14 -34 -24 -6 -21 -44 -40 -80 -40 -16 0
-39 -12 -56 -27 l-28 -28 -315 0 -314 0 -25 28 c-20 21 -35 27 -66 27 -29 0
-47 7 -64 25 -14 13 -45 33 -70 44 -25 11 -48 27 -51 35 -3 8 -18 20 -34 26
-16 7 -32 21 -36 32 -3 10 -16 24 -29 30 -12 5 -28 22 -35 36 -6 14 -20 32
-30 39 -10 7 -26 33 -36 58 -9 25 -22 45 -29 45 -15 0 -35 43 -35 75 0 13 -12
35 -26 48 -20 19 -27 39 -35 97 -7 46 -18 83 -32 102 -21 29 -22 39 -25 338
l-3 308 29 34 c25 28 30 44 34 105 4 59 10 78 32 103 14 17 26 43 26 56 0 15
12 36 30 52 16 15 33 42 36 60 4 18 17 42 31 55 13 12 30 34 38 49 8 15 23 29
33 32 11 4 24 18 30 31 6 14 17 25 23 25 6 0 29 16 50 35 22 19 49 35 62 35
13 0 34 13 49 30 21 24 34 30 67 30 32 0 44 5 57 25 10 15 31 28 57 34 53 11
517 13 577 2z m-3879 -88 c6 -16 9 -84 7 -161 -3 -119 -5 -135 -22 -148 -16
-12 -99 -14 -483 -14 l-463 0 0 -280 c0 -154 1 -281 3 -282 1 -1 183 -5 405
-8 385 -5 404 -6 418 -24 10 -15 14 -53 14 -150 0 -72 -4 -136 -8 -142 -21
-31 -54 -34 -429 -34 -208 0 -383 -4 -390 -8 -9 -6 -13 -103 -15 -386 -3 -360
-4 -378 -22 -392 -15 -11 -59 -14 -193 -14 -160 0 -175 2 -193 20 -20 20 -20
33 -20 1019 0 895 2 1001 16 1015 14 14 90 16 690 16 l674 0 11 -27z m1653 11
c13 -12 16 -41 16 -152 0 -75 -4 -142 -8 -148 -21 -32 -53 -34 -511 -34 l-461
0 0 -285 0 -285 389 0 390 0 15 -22 c13 -18 16 -51 16 -153 0 -102 -3 -135
-16 -153 l-15 -22 -390 0 -389 0 0 -378 c0 -326 -2 -381 -16 -400 -15 -21 -21
-22 -194 -22 -173 0 -179 1 -194 22 -14 20 -16 133 -16 1016 0 666 3 1000 10
1013 10 18 29 19 685 19 599 0 675 -2 689 -16z m684 4 c9 -9 12 -249 12 -1019
0 -903 -2 -1009 -16 -1023 -23 -24 -355 -24 -378 0 -14 14 -16 120 -16 1023 0
770 3 1010 12 1019 8 8 66 12 193 12 127 0 185 -4 193 -12z m2710 0 c9 -9 12
-250 12 -1021 0 -950 -1 -1011 -17 -1023 -13 -10 -64 -13 -195 -14 -165 0
-178 1 -188 19 -7 13 -10 348 -10 1016 0 668 3 1003 10 1016 10 18 23 19 193
19 129 0 187 -4 195 -12z m1436 -12 c6 -10 21 -29 34 -42 15 -16 22 -35 22
-64 0 -31 6 -47 24 -64 18 -16 28 -41 37 -92 9 -47 20 -76 35 -90 17 -17 24
-38 30 -93 5 -56 10 -72 25 -76 18 -6 39 -60 39 -101 0 -12 7 -28 17 -35 23
-20 43 -72 43 -116 0 -26 7 -45 25 -63 18 -18 29 -45 35 -85 5 -33 16 -62 23
-67 18 -9 34 -50 41 -105 4 -25 16 -52 30 -66 18 -19 26 -40 31 -90 6 -53 12
-69 30 -81 17 -11 25 -29 30 -68 5 -35 15 -60 30 -74 16 -15 24 -37 29 -82 5
-41 13 -68 26 -80 24 -22 40 -64 40 -105 0 -48 10 -75 29 -80 12 -3 21 -22 29
-61 6 -32 21 -69 32 -83 27 -34 26 -40 -12 -63 -30 -18 -51 -20 -220 -20
l-188 0 -17 28 c-10 15 -26 34 -36 42 -10 8 -21 38 -26 65 -4 28 -20 68 -34
89 -20 28 -27 51 -27 85 0 40 -6 53 -34 84 l-34 37 -375 0 -376 0 -12 -42 c-6
-24 -19 -52 -30 -64 -10 -11 -22 -42 -25 -70 -7 -47 -31 -104 -45 -104 -7 0
-11 -16 -23 -91 -9 -54 -29 -59 -246 -59 -212 0 -220 2 -220 69 0 61 10 96 36
126 13 16 24 41 24 56 0 37 17 80 40 101 11 11 21 39 26 75 5 39 14 64 30 80
15 15 25 40 29 78 5 37 16 66 31 84 14 17 26 48 30 80 5 41 14 59 35 79 24 21
29 33 29 72 0 34 8 58 29 91 16 26 31 65 35 94 3 28 11 52 16 53 25 9 40 36
40 75 0 44 22 97 45 110 8 4 16 35 21 74 5 50 12 72 30 90 15 15 26 41 30 73
4 31 15 58 28 72 14 15 27 47 34 87 8 44 19 72 37 91 18 19 25 37 25 67 0 26
8 53 24 75 13 20 29 51 35 71 7 20 17 38 24 41 7 2 108 4 226 3 198 -2 215 -3
225 -21z m1356 5 c7 -13 10 -298 10 -854 l0 -835 23 -6 c12 -3 227 -6 478 -6
412 0 458 -2 470 -17 10 -12 14 -52 14 -158 0 -106 -4 -146 -14 -158 -12 -16
-72 -17 -684 -17 -610 0 -672 1 -689 17 -17 15 -18 60 -18 1019 0 898 2 1004
16 1018 13 13 45 16 199 16 172 0 185 -1 195 -19z m-12357 -55 c9 -7 17 -18
17 -24 0 -5 16 -19 35 -31 19 -11 35 -26 35 -33 0 -7 12 -22 26 -33 21 -17 29
-35 36 -86 11 -72 11 -66 0 -134 -9 -54 -27 -95 -43 -95 -5 0 -17 -15 -26 -34
-9 -19 -25 -37 -35 -39 -11 -3 -22 -14 -24 -25 -3 -10 -18 -26 -34 -35 -16
-10 -32 -26 -35 -37 -4 -11 -10 -20 -15 -20 -13 0 -240 -227 -240 -240 0 -5
-5 -10 -11 -10 -6 0 -33 -24 -60 -52 -27 -29 -53 -57 -59 -63 -6 -5 -28 -27
-50 -47 -21 -21 -43 -38 -48 -38 -5 0 -12 -9 -15 -21 -3 -11 -15 -23 -26 -26
-12 -3 -21 -9 -21 -14 0 -13 -107 -119 -120 -119 -5 0 -10 -6 -10 -14 0 -8
-13 -24 -29 -36 -17 -11 -33 -29 -36 -40 -4 -11 -17 -23 -31 -26 -13 -3 -24
-11 -24 -16 0 -14 -96 -108 -109 -108 -6 0 -11 -5 -11 -10 0 -12 -107 -120
-119 -120 -4 0 -13 -11 -19 -25 -6 -14 -16 -25 -22 -25 -15 0 -40 -25 -40 -40
0 -6 -11 -16 -25 -22 -13 -6 -27 -19 -30 -29 -4 -10 -23 -26 -43 -36 -20 -9
-47 -27 -60 -39 -45 -44 -199 -43 -228 1 -8 13 -25 26 -38 29 -24 6 -339 314
-350 342 -3 9 -14 18 -24 21 -10 2 -26 17 -35 33 -10 16 -26 32 -37 35 -11 4
-20 10 -20 15 0 12 -98 110 -110 110 -5 0 -12 11 -16 25 -3 14 -10 25 -15 25
-16 0 -109 96 -109 112 0 9 -9 18 -20 21 -31 8 -42 53 -38 160 4 95 5 98 36
127 18 16 32 34 32 40 0 6 13 16 29 21 16 6 31 19 34 29 6 24 64 40 145 40 64
0 132 -20 132 -40 0 -6 16 -18 35 -26 19 -8 35 -21 35 -29 0 -9 8 -18 18 -22
9 -3 38 -29 64 -57 27 -28 53 -55 58 -61 6 -5 69 -66 140 -135 155 -151 157
-153 165 -140 3 6 15 10 25 10 10 0 28 13 40 29 11 17 28 32 38 35 9 3 22 16
27 28 6 13 20 27 33 33 12 5 25 18 28 28 3 10 16 23 27 28 12 6 30 23 39 40 9
16 24 29 33 29 8 0 20 12 25 26 6 14 20 28 31 31 11 3 25 17 30 30 5 14 19 27
30 30 11 3 25 16 30 30 5 13 18 27 29 31 12 4 27 19 33 32 7 14 22 29 34 35
12 5 26 19 32 31 5 12 18 25 28 28 10 3 26 19 35 36 9 16 24 30 33 30 8 0 20
12 25 26 6 14 20 28 31 31 11 3 25 17 30 30 5 14 18 27 28 30 10 2 24 16 30
29 6 13 21 29 34 35 12 6 27 20 32 32 6 12 20 26 33 32 12 5 25 18 28 28 3 10
17 23 30 29 13 6 26 19 30 30 3 10 18 25 33 33 16 8 31 23 34 34 3 12 17 25
31 31 14 5 26 16 26 24 0 9 13 22 29 30 15 8 36 26 45 40 16 25 20 26 124 26
73 -1 113 -5 125 -14z"/>
<path d="M5795 3765 c-30 -13 -155 -35 -200 -35 -15 0 -26 -7 -30 -21 -4 -11
-20 -25 -36 -31 -15 -5 -31 -18 -34 -27 -3 -10 -17 -23 -30 -29 -14 -6 -25
-18 -25 -26 0 -8 -11 -23 -25 -34 -16 -13 -27 -34 -31 -61 -4 -26 -15 -48 -29
-60 -20 -15 -24 -30 -30 -112 -8 -95 -18 -139 -36 -150 -6 -3 -10 -57 -10
-127 -1 -95 3 -125 16 -145 10 -16 20 -66 27 -129 9 -85 15 -107 33 -126 13
-13 26 -41 29 -67 5 -31 13 -46 26 -50 10 -3 22 -14 25 -23 3 -9 26 -35 51
-57 26 -22 58 -52 73 -66 24 -23 38 -27 161 -39 103 -10 148 -10 188 -1 29 6
66 11 82 11 19 0 47 13 76 35 25 19 51 35 58 35 7 0 18 11 24 24 6 13 19 27
29 30 11 4 24 24 32 50 7 26 23 52 37 61 18 12 24 24 24 54 0 48 18 101 41
124 18 16 19 38 19 276 0 245 -1 259 -20 276 -23 21 -40 74 -40 126 0 27 -6
41 -23 52 -13 8 -29 34 -37 57 -9 26 -23 46 -37 53 -13 6 -26 20 -29 33 -4 14
-16 24 -33 27 -15 3 -38 17 -51 30 -20 19 -44 27 -109 36 -46 7 -93 18 -105
26 -17 11 -26 11 -51 0z"/>
<path d="M14636 3483 c-5 -56 -13 -80 -32 -103 -17 -20 -28 -49 -34 -89 -8
-61 -24 -101 -39 -101 -5 0 -12 -19 -16 -42 -10 -65 -26 -110 -46 -132 -11
-11 -19 -34 -19 -52 0 -50 -11 -91 -29 -111 -34 -36 -32 -50 7 -57 55 -9 455
-7 470 3 16 10 1 87 -21 104 -19 16 -37 71 -37 117 0 25 -8 46 -24 65 -25 28
-36 65 -36 115 0 16 -12 42 -27 60 -20 25 -27 46 -32 101 -5 54 -11 72 -28 84
-20 14 -38 50 -45 90 -2 11 -8 -13 -12 -52z"/>
</g>
</svg>
